<svg width="700" height="700" viewBox="0 0 700 700" fill="none" xmlns="http://www.w3.org/2000/svg">
<line x1="451" y1="659" x2="565" y2="659" stroke="#17235B" stroke-width="50"/>
<line x1="492" y1="393" x2="562" y2="393" stroke="#4AA3EA" stroke-width="30" stroke-linecap="round"/>
<line x1="446.907" y1="480.907" x2="566.904" y2="480.162" stroke="#4AA3EA" stroke-width="30" stroke-linecap="round"/>
<line x1="445.907" y1="568.907" x2="565.904" y2="568.162" stroke="#4AA3EA" stroke-width="30" stroke-linecap="round"/>
<path d="M442 284C428.193 284 417 295.193 417 309C417 322.807 428.193 334 442 334V309V284ZM442 309V334H565V309V284H442V309Z" fill="#17235B"/>
<line x1="634" y1="381" x2="634" y2="587" stroke="#17235B" stroke-width="50"/>
<path d="M559 309C578.891 309 597.968 316.902 612.033 330.967C626.098 345.032 634 364.109 634 384" stroke="#17235B" stroke-width="50"/>
<line x1="120" y1="659" x2="316" y2="659" stroke="#17235B" stroke-width="50" stroke-linecap="round"/>
<line x1="121" y1="309" x2="307" y2="309" stroke="#17235B" stroke-width="50"/>
<line x1="47" y1="381" x2="47" y2="587" stroke="#17235B" stroke-width="50"/>
<line x1="380" y1="381" x2="380" y2="587" stroke="#17235B" stroke-width="50"/>
<path d="M47 384C47 364.109 54.9018 345.032 68.967 330.967C83.0322 316.902 102.109 309 122 309" stroke="#17235B" stroke-width="50"/>
<path d="M305 309C324.891 309 343.968 316.902 358.033 330.967C372.098 345.032 380 364.109 380 384" stroke="#17235B" stroke-width="50"/>
<path d="M122 659C102.109 659 83.0322 651.098 68.967 637.033C54.9018 622.968 47 603.891 47 584" stroke="#17235B" stroke-width="50"/>
<path d="M455 659C435.109 659 416.032 651.098 401.967 637.033C387.902 622.968 380 603.891 380 584" stroke="#17235B" stroke-width="50"/>
<path d="M634 584C634 603.891 626.098 622.968 612.033 637.033C597.968 651.098 578.891 659 559 659" stroke="#17235B" stroke-width="50"/>
<line x1="150" y1="200" x2="150" y2="284" stroke="#17235B" stroke-width="50"/>
<line x1="294.999" y1="204.728" x2="295.999" y2="296.728" stroke="#17235B" stroke-width="50"/>
<path d="M139 225C128.757 225 118.622 222.902 109.221 218.835C99.8198 214.768 91.3514 208.818 84.3379 201.352C77.3244 193.887 71.9145 185.064 68.4418 175.427C64.9691 165.791 63.5071 155.545 64.1461 145.322C64.785 135.098 67.5114 125.114 72.157 115.985C76.8026 106.856 83.269 98.7752 91.1575 92.2411C99.046 85.7069 108.189 80.8579 118.024 77.9931C127.858 75.1282 138.175 74.3082 148.339 75.5837" stroke="#17235B" stroke-width="50"/>
<path d="M280.964 80.4318C291.148 79.3342 301.449 80.3344 311.232 83.3707C321.015 86.407 330.072 91.4151 337.845 98.0861C345.618 104.757 351.942 112.95 356.427 122.159C360.913 131.368 363.464 141.398 363.924 151.631C364.384 161.863 362.744 172.082 359.103 181.657C355.462 191.231 349.899 199.958 342.756 207.3C335.613 214.642 327.042 220.442 317.571 224.345C308.101 228.247 297.931 230.168 287.689 229.989" stroke="#17235B" stroke-width="50"/>
<line x1="145.058" y1="405.132" x2="116.132" y2="439.604" stroke="#17235B" stroke-width="30" stroke-linecap="round"/>
<line x1="174.854" y1="440.247" x2="145.928" y2="405.775" stroke="#17235B" stroke-width="30" stroke-linecap="round"/>
<line x1="281.058" y1="405.132" x2="252.132" y2="439.604" stroke="#17235B" stroke-width="30" stroke-linecap="round"/>
<line x1="310.854" y1="440.247" x2="281.928" y2="405.775" stroke="#17235B" stroke-width="30" stroke-linecap="round"/>
<mask id="path-25-inside-1_34_101" fill="white">
<path d="M289 528C289 542.587 281.098 556.576 267.033 566.891C252.968 577.205 233.891 583 214 583C194.109 583 175.032 577.205 160.967 566.891C146.902 556.576 139 542.587 139 528L214 528H289Z"/>
</mask>
<path d="M289 528C289 542.587 281.098 556.576 267.033 566.891C252.968 577.205 233.891 583 214 583C194.109 583 175.032 577.205 160.967 566.891C146.902 556.576 139 542.587 139 528L214 528H289Z" stroke="#17235B" stroke-width="60" mask="url(#path-25-inside-1_34_101)"/>
<path d="M133.217 99.2978C134.693 79.9429 143.615 61.914 158.109 49.0013C172.602 36.0887 191.537 29.2982 210.933 30.0574C230.33 30.8166 248.676 39.0663 262.116 53.0723C275.555 67.0782 283.041 85.7493 283 105.16" stroke="#17235B" stroke-width="50"/>
</svg>
